<mxfile host="app.diagrams.net" agent="Mozilla/5.0 (Windows NT 10.0; Win64; x64) AppleWebKit/537.36 (KHTML, like Gecko) Chrome/131.0.0.0 Safari/537.36" version="26.0.2" pages="20">
  <diagram id="C5RBs43oDa-KdzZeNtuy" name="Page-1">
    <mxGraphModel dx="1338" dy="1013" grid="1" gridSize="10" guides="1" tooltips="1" connect="1" arrows="1" fold="1" page="1" pageScale="1" pageWidth="827" pageHeight="1169" math="0" shadow="0">
      <root>
        <mxCell id="WIyWlLk6GJQsqaUBKTNV-0" />
        <mxCell id="WIyWlLk6GJQsqaUBKTNV-1" parent="WIyWlLk6GJQsqaUBKTNV-0" />
        <mxCell id="WIyWlLk6GJQsqaUBKTNV-2" value="" style="rounded=0;html=1;jettySize=auto;orthogonalLoop=1;fontSize=11;endArrow=block;endFill=0;endSize=8;strokeWidth=2;shadow=0;labelBackgroundColor=none;edgeStyle=orthogonalEdgeStyle;" parent="WIyWlLk6GJQsqaUBKTNV-1" edge="1">
          <mxGeometry relative="1" as="geometry">
            <mxPoint x="-484" y="70" as="sourcePoint" />
            <mxPoint x="-483.9411764705883" y="120.04705882352937" as="targetPoint" />
          </mxGeometry>
        </mxCell>
        <mxCell id="lQZ1Qa1pmvUijJkoByOS-1" value="&lt;font style=&quot;font-size: 14px;&quot;&gt;Main&lt;/font&gt;" style="ellipse;whiteSpace=wrap;html=1;strokeWidth=2;" vertex="1" parent="WIyWlLk6GJQsqaUBKTNV-1">
          <mxGeometry x="-529" y="20" width="90" height="50" as="geometry" />
        </mxCell>
        <mxCell id="lQZ1Qa1pmvUijJkoByOS-2" value="End" style="ellipse;whiteSpace=wrap;html=1;strokeWidth=2;" vertex="1" parent="WIyWlLk6GJQsqaUBKTNV-1">
          <mxGeometry x="180" y="980" width="90" height="50" as="geometry" />
        </mxCell>
        <mxCell id="QUhLrNezt7EVMed32NgD-0" value="&lt;font style=&quot;font-size: 13px;&quot;&gt;using MySql.Data.MySqlClient&lt;/font&gt;" style="shape=internalStorage;whiteSpace=wrap;html=1;dx=15;dy=15;rounded=1;arcSize=8;strokeWidth=2;" vertex="1" parent="WIyWlLk6GJQsqaUBKTNV-1">
          <mxGeometry x="-589" y="120" width="210" height="60" as="geometry" />
        </mxCell>
        <mxCell id="QUhLrNezt7EVMed32NgD-1" value="&lt;font style=&quot;font-size: 14px;&quot;&gt;host, db, user, pass&lt;/font&gt;" style="shape=internalStorage;whiteSpace=wrap;html=1;dx=15;dy=15;rounded=1;arcSize=8;strokeWidth=2;" vertex="1" parent="WIyWlLk6GJQsqaUBKTNV-1">
          <mxGeometry x="-564" y="220" width="160" height="60" as="geometry" />
        </mxCell>
        <mxCell id="QUhLrNezt7EVMed32NgD-2" value="" style="endArrow=classic;html=1;rounded=0;exitX=0.5;exitY=1;exitDx=0;exitDy=0;entryX=0.5;entryY=0;entryDx=0;entryDy=0;strokeWidth=2;" edge="1" parent="WIyWlLk6GJQsqaUBKTNV-1" source="QUhLrNezt7EVMed32NgD-0" target="QUhLrNezt7EVMed32NgD-1">
          <mxGeometry width="50" height="50" relative="1" as="geometry">
            <mxPoint x="-439" y="300" as="sourcePoint" />
            <mxPoint x="-389" y="250" as="targetPoint" />
          </mxGeometry>
        </mxCell>
        <mxCell id="QUhLrNezt7EVMed32NgD-4" value="&lt;font style=&quot;font-size: 13px;&quot;&gt;host = &quot;localhost&quot;&lt;/font&gt;&lt;div&gt;&lt;font style=&quot;font-size: 13px;&quot;&gt;user = &quot;root&quot;&lt;/font&gt;&lt;/div&gt;&lt;div&gt;&lt;font style=&quot;font-size: 13px;&quot;&gt;pass = &quot;&quot;&lt;/font&gt;&lt;/div&gt;&lt;div&gt;&lt;font style=&quot;font-size: 13px;&quot;&gt;db = &quot;csharp_keuangan&quot;&lt;/font&gt;&lt;/div&gt;" style="rounded=1;whiteSpace=wrap;html=1;absoluteArcSize=1;arcSize=14;strokeWidth=2;" vertex="1" parent="WIyWlLk6GJQsqaUBKTNV-1">
          <mxGeometry x="-559" y="320" width="150" height="70" as="geometry" />
        </mxCell>
        <mxCell id="QUhLrNezt7EVMed32NgD-5" value="" style="endArrow=classic;html=1;rounded=0;exitX=0.5;exitY=1;exitDx=0;exitDy=0;entryX=0.5;entryY=0;entryDx=0;entryDy=0;strokeWidth=2;" edge="1" parent="WIyWlLk6GJQsqaUBKTNV-1" source="QUhLrNezt7EVMed32NgD-1" target="QUhLrNezt7EVMed32NgD-4">
          <mxGeometry width="50" height="50" relative="1" as="geometry">
            <mxPoint x="-409" y="410" as="sourcePoint" />
            <mxPoint x="-359" y="360" as="targetPoint" />
          </mxGeometry>
        </mxCell>
        <mxCell id="QUhLrNezt7EVMed32NgD-6" value="&lt;font style=&quot;font-size: 14px;&quot;&gt;MySqlConnection connection = new MySqlConnection(connectionString)&lt;/font&gt;" style="rounded=1;whiteSpace=wrap;html=1;absoluteArcSize=1;arcSize=14;strokeWidth=2;" vertex="1" parent="WIyWlLk6GJQsqaUBKTNV-1">
          <mxGeometry x="-611" y="570" width="254" height="100" as="geometry" />
        </mxCell>
        <mxCell id="QUhLrNezt7EVMed32NgD-7" value="&lt;font style=&quot;font-size: 16px;&quot;&gt;string connectionString = &quot;Server=&quot;+host+&quot;;Database=&quot;+db+&quot;;User Id=&quot;+user+&quot;;Password=&quot;+pass+&quot;;&quot;&lt;/font&gt;&lt;div&gt;&lt;font style=&quot;font-size: 16px;&quot;&gt;int menu = 0&lt;/font&gt;&lt;/div&gt;" style="rounded=1;whiteSpace=wrap;html=1;absoluteArcSize=1;arcSize=14;strokeWidth=2;" vertex="1" parent="WIyWlLk6GJQsqaUBKTNV-1">
          <mxGeometry x="-714.75" y="430" width="461.5" height="100" as="geometry" />
        </mxCell>
        <mxCell id="QUhLrNezt7EVMed32NgD-8" value="&lt;font style=&quot;font-size: 23px;&quot;&gt;Try&lt;/font&gt;" style="strokeWidth=2;html=1;shape=mxgraph.flowchart.decision;whiteSpace=wrap;" vertex="1" parent="WIyWlLk6GJQsqaUBKTNV-1">
          <mxGeometry x="180" y="20" width="100" height="100" as="geometry" />
        </mxCell>
        <mxCell id="QUhLrNezt7EVMed32NgD-10" value="" style="endArrow=classic;html=1;rounded=0;entryX=0.5;entryY=0;entryDx=0;entryDy=0;exitX=0.5;exitY=1;exitDx=0;exitDy=0;" edge="1" parent="WIyWlLk6GJQsqaUBKTNV-1" source="QUhLrNezt7EVMed32NgD-7" target="QUhLrNezt7EVMed32NgD-6">
          <mxGeometry width="50" height="50" relative="1" as="geometry">
            <mxPoint x="-480" y="640" as="sourcePoint" />
            <mxPoint x="-430" y="590" as="targetPoint" />
          </mxGeometry>
        </mxCell>
        <mxCell id="QUhLrNezt7EVMed32NgD-12" value="" style="endArrow=classic;html=1;rounded=0;exitX=0.5;exitY=1;exitDx=0;exitDy=0;entryX=0.5;entryY=0;entryDx=0;entryDy=0;entryPerimeter=0;" edge="1" parent="WIyWlLk6GJQsqaUBKTNV-1" source="QUhLrNezt7EVMed32NgD-6" target="QUhLrNezt7EVMed32NgD-8">
          <mxGeometry width="50" height="50" relative="1" as="geometry">
            <mxPoint x="-430" y="620" as="sourcePoint" />
            <mxPoint x="-380" y="570" as="targetPoint" />
            <Array as="points">
              <mxPoint x="-484" y="720" />
              <mxPoint x="-80" y="720" />
              <mxPoint x="-80" y="20" />
            </Array>
          </mxGeometry>
        </mxCell>
        <mxCell id="QUhLrNezt7EVMed32NgD-13" value="" style="endArrow=classic;html=1;rounded=0;exitX=0.5;exitY=1;exitDx=0;exitDy=0;entryX=0.5;entryY=0;entryDx=0;entryDy=0;" edge="1" parent="WIyWlLk6GJQsqaUBKTNV-1" source="QUhLrNezt7EVMed32NgD-4" target="QUhLrNezt7EVMed32NgD-7">
          <mxGeometry width="50" height="50" relative="1" as="geometry">
            <mxPoint x="-360" y="480" as="sourcePoint" />
            <mxPoint x="-310" y="430" as="targetPoint" />
          </mxGeometry>
        </mxCell>
      </root>
    </mxGraphModel>
  </diagram>
  <diagram id="NKYOX07cZHUkGJWVWnNs" name="Page-2">
    <mxGraphModel grid="1" page="1" gridSize="10" guides="1" tooltips="1" connect="1" arrows="1" fold="1" pageScale="1" pageWidth="850" pageHeight="1100" math="0" shadow="0">
      <root>
        <mxCell id="0" />
        <mxCell id="1" parent="0" />
      </root>
    </mxGraphModel>
  </diagram>
  <diagram id="xb_vYQppYyi4sKvNpap2" name="Page-3">
    <mxGraphModel grid="1" page="1" gridSize="10" guides="1" tooltips="1" connect="1" arrows="1" fold="1" pageScale="1" pageWidth="850" pageHeight="1100" math="0" shadow="0">
      <root>
        <mxCell id="0" />
        <mxCell id="1" parent="0" />
      </root>
    </mxGraphModel>
  </diagram>
  <diagram id="rBiqcdUvH6UjehRDOXX-" name="Page-4">
    <mxGraphModel grid="1" page="1" gridSize="10" guides="1" tooltips="1" connect="1" arrows="1" fold="1" pageScale="1" pageWidth="850" pageHeight="1100" math="0" shadow="0">
      <root>
        <mxCell id="0" />
        <mxCell id="1" parent="0" />
      </root>
    </mxGraphModel>
  </diagram>
  <diagram id="t1UZ91pcX-lFugoVHUTK" name="Page-5">
    <mxGraphModel grid="1" page="1" gridSize="10" guides="1" tooltips="1" connect="1" arrows="1" fold="1" pageScale="1" pageWidth="850" pageHeight="1100" math="0" shadow="0">
      <root>
        <mxCell id="0" />
        <mxCell id="1" parent="0" />
      </root>
    </mxGraphModel>
  </diagram>
  <diagram id="U9UoIrl8vBMsJkwrhvRa" name="Page-6">
    <mxGraphModel grid="1" page="1" gridSize="10" guides="1" tooltips="1" connect="1" arrows="1" fold="1" pageScale="1" pageWidth="850" pageHeight="1100" math="0" shadow="0">
      <root>
        <mxCell id="0" />
        <mxCell id="1" parent="0" />
      </root>
    </mxGraphModel>
  </diagram>
  <diagram id="DwCSGdMxxaR6QBLuqLQT" name="Page-7">
    <mxGraphModel grid="1" page="1" gridSize="10" guides="1" tooltips="1" connect="1" arrows="1" fold="1" pageScale="1" pageWidth="850" pageHeight="1100" math="0" shadow="0">
      <root>
        <mxCell id="0" />
        <mxCell id="1" parent="0" />
      </root>
    </mxGraphModel>
  </diagram>
  <diagram id="qWGLciHHOkxmpp1YJJn4" name="Page-8">
    <mxGraphModel grid="1" page="1" gridSize="10" guides="1" tooltips="1" connect="1" arrows="1" fold="1" pageScale="1" pageWidth="850" pageHeight="1100" math="0" shadow="0">
      <root>
        <mxCell id="0" />
        <mxCell id="1" parent="0" />
      </root>
    </mxGraphModel>
  </diagram>
  <diagram id="Oh5Gu2cLrY-zXJqtfQYh" name="Page-9">
    <mxGraphModel grid="1" page="1" gridSize="10" guides="1" tooltips="1" connect="1" arrows="1" fold="1" pageScale="1" pageWidth="850" pageHeight="1100" math="0" shadow="0">
      <root>
        <mxCell id="0" />
        <mxCell id="1" parent="0" />
      </root>
    </mxGraphModel>
  </diagram>
  <diagram id="jJHAO4n0k3gFQxZKkAif" name="Page-10">
    <mxGraphModel grid="1" page="1" gridSize="10" guides="1" tooltips="1" connect="1" arrows="1" fold="1" pageScale="1" pageWidth="850" pageHeight="1100" math="0" shadow="0">
      <root>
        <mxCell id="0" />
        <mxCell id="1" parent="0" />
      </root>
    </mxGraphModel>
  </diagram>
  <diagram id="xw32kB-x65UVQrHDTItI" name="Page-11">
    <mxGraphModel grid="1" page="1" gridSize="10" guides="1" tooltips="1" connect="1" arrows="1" fold="1" pageScale="1" pageWidth="850" pageHeight="1100" math="0" shadow="0">
      <root>
        <mxCell id="0" />
        <mxCell id="1" parent="0" />
      </root>
    </mxGraphModel>
  </diagram>
  <diagram id="pwVD9XBtoPRLLaczFRUM" name="Page-12">
    <mxGraphModel grid="1" page="1" gridSize="10" guides="1" tooltips="1" connect="1" arrows="1" fold="1" pageScale="1" pageWidth="850" pageHeight="1100" math="0" shadow="0">
      <root>
        <mxCell id="0" />
        <mxCell id="1" parent="0" />
      </root>
    </mxGraphModel>
  </diagram>
  <diagram id="Gpvb8E_5_BGcY_b56tVv" name="Page-13">
    <mxGraphModel grid="1" page="1" gridSize="10" guides="1" tooltips="1" connect="1" arrows="1" fold="1" pageScale="1" pageWidth="850" pageHeight="1100" math="0" shadow="0">
      <root>
        <mxCell id="0" />
        <mxCell id="1" parent="0" />
      </root>
    </mxGraphModel>
  </diagram>
  <diagram id="0kVwmRAdRsTbGdHoP5-X" name="Page-14">
    <mxGraphModel grid="1" page="1" gridSize="10" guides="1" tooltips="1" connect="1" arrows="1" fold="1" pageScale="1" pageWidth="850" pageHeight="1100" math="0" shadow="0">
      <root>
        <mxCell id="0" />
        <mxCell id="1" parent="0" />
      </root>
    </mxGraphModel>
  </diagram>
  <diagram id="3kBOuOrxlLTceS-cDpTs" name="Page-15">
    <mxGraphModel grid="1" page="1" gridSize="10" guides="1" tooltips="1" connect="1" arrows="1" fold="1" pageScale="1" pageWidth="850" pageHeight="1100" math="0" shadow="0">
      <root>
        <mxCell id="0" />
        <mxCell id="1" parent="0" />
      </root>
    </mxGraphModel>
  </diagram>
  <diagram id="2j7v7vdXZjv24_6tnTM2" name="Page-16">
    <mxGraphModel grid="1" page="1" gridSize="10" guides="1" tooltips="1" connect="1" arrows="1" fold="1" pageScale="1" pageWidth="850" pageHeight="1100" math="0" shadow="0">
      <root>
        <mxCell id="0" />
        <mxCell id="1" parent="0" />
      </root>
    </mxGraphModel>
  </diagram>
  <diagram id="2kePiO6fKVoBm1tcD-C-" name="Page-17">
    <mxGraphModel grid="1" page="1" gridSize="10" guides="1" tooltips="1" connect="1" arrows="1" fold="1" pageScale="1" pageWidth="850" pageHeight="1100" math="0" shadow="0">
      <root>
        <mxCell id="0" />
        <mxCell id="1" parent="0" />
      </root>
    </mxGraphModel>
  </diagram>
  <diagram id="UPNI0Fc7smmPytjJekDZ" name="Page-18">
    <mxGraphModel grid="1" page="1" gridSize="10" guides="1" tooltips="1" connect="1" arrows="1" fold="1" pageScale="1" pageWidth="850" pageHeight="1100" math="0" shadow="0">
      <root>
        <mxCell id="0" />
        <mxCell id="1" parent="0" />
      </root>
    </mxGraphModel>
  </diagram>
  <diagram id="-rIlX1dPy96ufMkeNBzT" name="Page-19">
    <mxGraphModel grid="1" page="1" gridSize="10" guides="1" tooltips="1" connect="1" arrows="1" fold="1" pageScale="1" pageWidth="850" pageHeight="1100" math="0" shadow="0">
      <root>
        <mxCell id="0" />
        <mxCell id="1" parent="0" />
      </root>
    </mxGraphModel>
  </diagram>
  <diagram id="lxrVORQ-X-L-RWgKj5OB" name="Page-20">
    <mxGraphModel grid="1" page="1" gridSize="10" guides="1" tooltips="1" connect="1" arrows="1" fold="1" pageScale="1" pageWidth="850" pageHeight="1100" math="0" shadow="0">
      <root>
        <mxCell id="0" />
        <mxCell id="1" parent="0" />
      </root>
    </mxGraphModel>
  </diagram>
</mxfile>
